<?xml version="1.0" encoding="UTF-8"?><svg id="Layer_2" xmlns="http://www.w3.org/2000/svg" viewBox="0 0 1920 1377.27"><defs><style>.cls-1{letter-spacing:0em;}.cls-2,.cls-3{fill:#fff;}.cls-4{font-family:Barlow-Bold, Barlow;font-weight:700;}.cls-4,.cls-5,.cls-6,.cls-7{fill:#1c2a36;}.cls-4,.cls-7{font-size:48px;}.cls-8{fill:#6f906a;}.cls-9{letter-spacing:0em;}.cls-10{fill:#a9bfd3;}.cls-11,.cls-12{fill:#f4f47b;}.cls-13{letter-spacing:-.02em;}.cls-14{letter-spacing:0em;}.cls-3,.cls-5{font-size:36px;}.cls-3,.cls-5,.cls-7{font-family:Barlow-Regular, Barlow;}.cls-15{letter-spacing:-.02em;}.cls-16{letter-spacing:0em;}.cls-12{opacity:.39;}.cls-17{opacity:.53;}.cls-18{fill:#4a6d8d;}.cls-19{letter-spacing:-.09em;}</style></defs><g id="Layer_1-2"><rect class="cls-2" width="1920" height="1377.27"/><rect class="cls-12" x="136" y="80.76" width="265" height="253"/><g><g class="cls-17"><circle class="cls-8" cx="1419.43" cy="935.22" r="24"/></g><circle class="cls-8" cx="1419.43" cy="935.22" r="8"/></g><g><g class="cls-17"><ellipse class="cls-6" cx="523.06" cy="905.88" rx="28.42" ry="26.27" transform="translate(-447.08 514.68) rotate(-38.04)"/></g><ellipse class="cls-6" cx="523.06" cy="905.88" rx="9.47" ry="8.76" transform="translate(-447.08 514.68) rotate(-38.04)"/></g><g><g class="cls-17"><ellipse class="cls-6" cx="414.03" cy="964.99" rx="28.42" ry="26.27" transform="translate(-506.66 460.06) rotate(-38.04)"/></g><ellipse class="cls-6" cx="414.03" cy="964.99" rx="9.47" ry="8.76" transform="translate(-506.66 460.06) rotate(-38.04)"/></g><g><g class="cls-17"><ellipse class="cls-6" cx="441.94" cy="802.19" rx="19.06" ry="17.62" transform="translate(-400.42 442.68) rotate(-38.04)"/></g><ellipse class="cls-6" cx="441.94" cy="802.19" rx="6.35" ry="5.87" transform="translate(-400.42 442.68) rotate(-38.04)"/></g><g><g class="cls-17"><ellipse class="cls-6" cx="553.15" cy="907.45" rx="19.06" ry="17.62" transform="translate(-441.66 533.56) rotate(-38.04)"/></g><ellipse class="cls-6" cx="553.15" cy="907.45" rx="6.35" ry="5.87" transform="translate(-441.66 533.56) rotate(-38.04)"/></g><g><g class="cls-17"><ellipse class="cls-6" cx="573.61" cy="914.6" rx="12.7" ry="11.74" transform="translate(-441.72 547.68) rotate(-38.04)"/></g><ellipse class="cls-6" cx="573.61" cy="914.6" rx="4.23" ry="3.91" transform="translate(-441.72 547.68) rotate(-38.04)"/></g><g><g class="cls-17"><ellipse class="cls-6" cx="354.48" cy="1015.4" rx="12.7" ry="11.74" transform="translate(-550.37 434.07) rotate(-38.04)"/></g><ellipse class="cls-6" cx="354.48" cy="1015.4" rx="4.23" ry="3.91" transform="translate(-550.37 434.07) rotate(-38.04)"/></g><g><g class="cls-17"><ellipse class="cls-6" cx="481.6" cy="861.02" rx="12.7" ry="11.74" transform="translate(-428.25 479.61) rotate(-38.04)"/></g><ellipse class="cls-6" cx="481.6" cy="861.02" rx="4.23" ry="3.91" transform="translate(-428.25 479.61) rotate(-38.04)"/></g><g><g class="cls-17"><ellipse class="cls-6" cx="485.37" cy="809.41" rx="12.7" ry="11.74" transform="translate(-395.65 470.97) rotate(-38.04)"/></g><ellipse class="cls-6" cx="485.37" cy="809.41" rx="4.23" ry="3.91" transform="translate(-395.65 470.97) rotate(-38.04)"/></g><g><g class="cls-17"><ellipse class="cls-6" cx="577.57" cy="870.3" rx="15.04" ry="13.91" transform="translate(-413.58 540.71) rotate(-38.04)"/></g><ellipse class="cls-6" cx="577.57" cy="870.3" rx="5.01" ry="4.64" transform="translate(-413.58 540.71) rotate(-38.04)"/></g><g><g class="cls-17"><ellipse class="cls-6" cx="462.45" cy="1058.46" rx="15.04" ry="13.91" transform="translate(-553.97 509.74) rotate(-38.04)"/></g><ellipse class="cls-6" cx="462.45" cy="1058.46" rx="5.01" ry="4.64" transform="translate(-553.97 509.74) rotate(-38.04)"/></g><g><g class="cls-17"><ellipse class="cls-6" cx="519.99" cy="771.73" rx="15.04" ry="13.91" transform="translate(-365.08 484.3) rotate(-38.04)"/></g><ellipse class="cls-6" cx="519.99" cy="771.73" rx="5.01" ry="4.64" transform="translate(-365.08 484.3) rotate(-38.04)"/></g><g><g class="cls-17"><ellipse class="cls-6" cx="414.66" cy="879.64" rx="16.05" ry="14.83" transform="translate(-453.93 442.32) rotate(-38.04)"/></g><ellipse class="cls-6" cx="414.66" cy="879.64" rx="5.35" ry="4.94" transform="translate(-453.93 442.32) rotate(-38.04)"/></g><g><g class="cls-17"><circle class="cls-18" cx="544.18" cy="785.54" r="42.5"/></g><circle class="cls-18" cx="544.18" cy="785.54" r="14.17"/></g><g><g class="cls-17"><circle class="cls-18" cx="590.68" cy="789.79" r="28.5"/></g><circle class="cls-18" cx="590.68" cy="789.79" r="9.5"/></g><g><g class="cls-17"><circle class="cls-18" cx="622.64" cy="802.25" r="19"/></g><circle class="cls-18" cx="622.64" cy="802.25" r="6.33"/></g><g><g class="cls-17"><circle class="cls-18" cx="477.58" cy="712.58" r="19"/></g><circle class="cls-18" cx="477.58" cy="712.58" r="6.33"/></g><g><g class="cls-17"><circle class="cls-18" cx="480.34" cy="631.71" r="19"/></g><circle class="cls-18" cx="480.34" cy="631.71" r="6.33"/></g><g><g class="cls-17"><circle class="cls-18" cx="626.13" cy="732.86" r="22.5"/></g><circle class="cls-18" cx="626.13" cy="732.86" r="7.5"/></g><g><g class="cls-17"><circle class="cls-18" cx="375.48" cy="737.87" r="24"/></g><circle class="cls-18" cx="375.48" cy="737.87" r="8"/></g><g><g class="cls-17"><circle class="cls-18" cx="537.22" cy="1023.33" r="42.5"/></g><circle class="cls-18" cx="537.22" cy="1023.33" r="14.17"/></g><g><g class="cls-17"><circle class="cls-18" cx="583.72" cy="1027.59" r="28.5"/></g><circle class="cls-18" cx="583.72" cy="1027.59" r="9.5"/></g><g><g class="cls-17"><circle class="cls-18" cx="615.68" cy="1040.04" r="19"/></g><circle class="cls-18" cx="615.68" cy="1040.04" r="6.33"/></g><g><g class="cls-17"><circle class="cls-18" cx="470.62" cy="950.37" r="19"/></g><circle class="cls-18" cx="470.62" cy="950.37" r="6.33"/></g><g><g class="cls-17"><circle class="cls-18" cx="473.38" cy="869.5" r="19"/></g><circle class="cls-18" cx="473.38" cy="869.5" r="6.33"/></g><g><g class="cls-17"><circle class="cls-18" cx="619.17" cy="970.65" r="22.5"/></g><circle class="cls-18" cx="619.17" cy="970.65" r="7.5"/></g><g><g class="cls-17"><circle class="cls-8" cx="1417.78" cy="793.8" r="22.5"/></g><circle class="cls-8" cx="1417.78" cy="793.8" r="7.5"/></g><g><g class="cls-17"><circle class="cls-10" cx="1392.94" cy="729.92" r="24"/></g><circle class="cls-10" cx="1392.94" cy="729.92" r="8"/></g><g><g class="cls-17"><circle class="cls-8" cx="1334.46" cy="817.77" r="42.5"/></g><circle class="cls-8" cx="1334.46" cy="817.77" r="14.17"/></g><g><g class="cls-17"><circle class="cls-10" cx="1390.15" cy="1045.32" r="28.5"/></g><circle class="cls-10" cx="1390.15" cy="1045.32" r="9.5"/></g><g><g class="cls-17"><circle class="cls-10" cx="1354.31" cy="716.09" r="19"/></g><circle class="cls-10" cx="1354.31" cy="716.09" r="6.33"/></g><g><g class="cls-17"><circle class="cls-10" cx="1458.5" cy="909.65" r="19"/></g><circle class="cls-10" cx="1458.5" cy="909.65" r="6.33"/></g><g><g class="cls-17"><circle class="cls-10" cx="1253.2" cy="825.05" r="19"/></g><circle class="cls-10" cx="1253.2" cy="825.05" r="6.33"/></g><g><g class="cls-17"><circle class="cls-10" cx="1319.82" cy="902.49" r="22.5"/></g><circle class="cls-10" cx="1319.82" cy="902.49" r="7.5"/></g><g><g class="cls-17"><circle class="cls-8" cx="1337.15" cy="901.01" r="24"/></g><circle class="cls-8" cx="1337.15" cy="901.01" r="8"/></g><text class="cls-4" transform="translate(383 475.13)"><tspan class="cls-14" x="0" y="0">L</tspan><tspan x="27.07" y="0">OREM</tspan></text><text class="cls-4" transform="translate(1286 455.13)"><tspan class="cls-14" x="0" y="0">L</tspan><tspan x="27.07" y="0">OREM</tspan></text><rect class="cls-11" x="136" y="80.76" width="265" height="76"/><rect class="cls-6" x="136" y="225.76" width="265" height="48"/><text class="cls-7" transform="translate(194 140.13)"><tspan x="0" y="0">FI</tspan><tspan class="cls-19" x="39.7" y="0">L</tspan><tspan x="62.59" y="0">TER</tspan></text><text class="cls-5" transform="translate(170 211.93)"><tspan x="0" y="0">Di</tspan><tspan class="cls-1" x="31.43" y="0">s</tspan><tspan x="48.71" y="0">ta</tspan><tspan class="cls-9" x="80.21" y="0">n</tspan><tspan class="cls-16" x="99.36" y="0">c</tspan><tspan x="117.97" y="0">e</tspan></text><text class="cls-3" transform="translate(170 262.93)"><tspan class="cls-1" x="0" y="0">G</tspan><tspan class="cls-15" x="22.03" y="0">o</tspan><tspan class="cls-13" x="40.93" y="0">v</tspan><tspan x="57.42" y="0">ern</tspan><tspan class="cls-9" x="109.12" y="0">m</tspan><tspan x="138.64" y="0">ent</tspan></text><text class="cls-5" transform="translate(170 313.93)"><tspan x="0" y="0">Alia</tspan><tspan class="cls-9" x="57.71" y="0">n</tspan><tspan class="cls-16" x="76.86" y="0">c</tspan><tspan x="95.47" y="0">e</tspan></text></g></svg>