<?xml version="1.0" encoding="UTF-8"?><svg id="Layer_2" xmlns="http://www.w3.org/2000/svg" viewBox="0 0 1165 1094.43"><defs><style>.cls-1{fill:#fff;}.cls-2{fill:#6f906a;}.cls-3{letter-spacing:0em;}.cls-4{letter-spacing:-.03em;}.cls-5{font-family:Barlow-Bold, Barlow;font-size:48px;font-weight:700;}.cls-5,.cls-6,.cls-7{fill:#f4f47b;}.cls-8{fill:#a9bfd3;}.cls-9{letter-spacing:-.09em;}.cls-10,.cls-7{opacity:.53;}.cls-11{letter-spacing:0em;}.cls-12{letter-spacing:0em;}.cls-13{letter-spacing:0em;}</style></defs><g id="Layer_1-2"><g><g class="cls-10"><circle class="cls-2" cx="838" cy="1017.43" r="24"/></g><circle class="cls-2" cx="838" cy="1017.43" r="8"/></g><g><g class="cls-10"><ellipse class="cls-1" cx="214.72" cy="309.69" rx="28.42" ry="26.27"/></g><ellipse class="cls-1" cx="214.72" cy="309.69" rx="9.47" ry="8.76"/></g><g><g class="cls-10"><ellipse class="cls-1" cx="92.42" cy="289.07" rx="28.42" ry="26.27"/></g><ellipse class="cls-1" cx="92.42" cy="289.07" rx="9.47" ry="8.76"/></g><g><g class="cls-10"><ellipse class="cls-1" cx="214.72" cy="178.04" rx="19.06" ry="17.62"/></g><ellipse class="cls-1" cx="214.72" cy="178.04" rx="6.35" ry="5.87"/></g><g><g class="cls-10"><ellipse class="cls-1" cx="237.45" cy="329.47" rx="19.06" ry="17.62"/></g><ellipse class="cls-1" cx="237.45" cy="329.47" rx="6.35" ry="5.87"/></g><g><g class="cls-10"><ellipse class="cls-1" cx="249.15" cy="347.71" rx="12.7" ry="11.74"/></g><ellipse class="cls-1" cx="249.15" cy="347.71" rx="4.23" ry="3.91"/></g><g><g class="cls-10"><ellipse class="cls-1" cx="14.45" cy="292.08" rx="12.7" ry="11.74"/></g><ellipse class="cls-1" cx="14.45" cy="292.08" rx="4.23" ry="3.91"/></g><g><g class="cls-10"><ellipse class="cls-1" cx="209.7" cy="248.81" rx="12.7" ry="11.74"/></g><ellipse class="cls-1" cx="209.7" cy="248.81" rx="4.23" ry="3.91"/></g><g><g class="cls-10"><ellipse class="cls-1" cx="244.47" cy="210.49" rx="12.7" ry="11.74"/></g><ellipse class="cls-1" cx="244.47" cy="210.49" rx="4.23" ry="3.91"/></g><g><g class="cls-10"><ellipse class="cls-1" cx="279.58" cy="315.26" rx="15.04" ry="13.91"/></g><ellipse class="cls-1" cx="279.58" cy="315.26" rx="5.01" ry="4.64"/></g><g><g class="cls-10"><ellipse class="cls-1" cx="72.96" cy="392.52" rx="15.04" ry="13.91"/></g><ellipse class="cls-1" cx="72.96" cy="392.52" rx="5.01" ry="4.64"/></g><g><g class="cls-10"><ellipse class="cls-1" cx="294.96" cy="202.15" rx="15.04" ry="13.91"/></g><ellipse class="cls-1" cx="294.96" cy="202.15" rx="5.01" ry="4.64"/></g><g><g class="cls-10"><ellipse class="cls-1" cx="145.51" cy="222.23" rx="16.05" ry="14.83"/></g><ellipse class="cls-1" cx="145.51" cy="222.23" rx="5.35" ry="4.94"/></g><g><circle class="cls-7" cx="1045.5" cy="291.93" r="42.5"/><circle class="cls-6" cx="1045.5" cy="291.93" r="14.17"/></g><g><circle class="cls-7" cx="1079.5" cy="323.93" r="28.5"/><circle class="cls-6" cx="1079.5" cy="323.93" r="9.5"/></g><g><circle class="cls-7" cx="1097" cy="353.43" r="19"/><circle class="cls-6" cx="1097" cy="353.43" r="6.33"/></g><g><circle class="cls-7" cx="1038" cy="193.43" r="19"/><circle class="cls-6" cx="1038" cy="193.43" r="6.33"/></g><g><circle class="cls-7" cx="1090" cy="131.43" r="19"/><circle class="cls-6" cx="1090" cy="131.43" r="6.33"/></g><g><circle class="cls-7" cx="1142.5" cy="300.93" r="22.5"/><circle class="cls-6" cx="1142.5" cy="300.93" r="7.5"/></g><g><circle class="cls-7" cx="942" cy="150.43" r="24"/><circle class="cls-6" cx="942" cy="150.43" r="8"/></g><g><circle class="cls-7" cx="893.5" cy="474.93" r="42.5"/><circle class="cls-6" cx="893.5" cy="474.93" r="14.17"/></g><g><circle class="cls-7" cx="927.5" cy="506.93" r="28.5"/><circle class="cls-6" cx="927.5" cy="506.93" r="9.5"/></g><g><circle class="cls-7" cx="945" cy="536.43" r="19"/><circle class="cls-6" cx="945" cy="536.43" r="6.33"/></g><g><circle class="cls-7" cx="886" cy="376.43" r="19"/><circle class="cls-6" cx="886" cy="376.43" r="6.33"/></g><g><circle class="cls-7" cx="938" cy="314.43" r="19"/><circle class="cls-6" cx="938" cy="314.43" r="6.33"/></g><g><circle class="cls-7" cx="990.5" cy="483.93" r="22.5"/><circle class="cls-6" cx="990.5" cy="483.93" r="7.5"/></g><g><g class="cls-10"><circle class="cls-2" cx="968.5" cy="1071.93" r="22.5"/></g><circle class="cls-2" cx="968.5" cy="1071.93" r="7.5"/></g><g><g class="cls-10"><circle class="cls-8" cx="309" cy="1042.43" r="24"/></g><circle class="cls-8" cx="309" cy="1042.43" r="8"/></g><g><g class="cls-10"><circle class="cls-2" cx="979.5" cy="985.93" r="42.5"/></g><circle class="cls-2" cx="979.5" cy="985.93" r="14.17"/></g><g><g class="cls-10"><circle class="cls-8" cx="28.5" cy="914.93" r="28.5"/></g><circle class="cls-8" cx="28.5" cy="914.93" r="9.5"/></g><g><g class="cls-10"><circle class="cls-8" cx="345" cy="1012.43" r="19"/></g><circle class="cls-8" cx="345" cy="1012.43" r="6.33"/></g><g><g class="cls-10"><circle class="cls-8" cx="126" cy="1031.43" r="19"/></g><circle class="cls-8" cx="126" cy="1031.43" r="6.33"/></g><g><g class="cls-10"><circle class="cls-8" cx="285" cy="876.43" r="19"/></g><circle class="cls-8" cx="285" cy="876.43" r="6.33"/></g><g><g class="cls-10"><circle class="cls-8" cx="187.5" cy="906.93" r="22.5"/></g><circle class="cls-8" cx="187.5" cy="906.93" r="7.5"/></g><g><g class="cls-10"><circle class="cls-2" cx="902" cy="955.43" r="24"/></g><circle class="cls-2" cx="902" cy="955.43" r="8"/></g><text class="cls-5" transform="translate(65 77.8)"><tspan x="0" y="0">N</tspan><tspan class="cls-9" x="31.92" y="0">A</tspan><tspan class="cls-4" x="60" y="0">T</tspan><tspan x="86.74" y="0">O</tspan></text><text class="cls-5" transform="translate(922 40.8)"><tspan x="0" y="0">PUTIN</tspan></text><text class="cls-5" transform="translate(878 870.8)"><tspan x="0" y="0">K</tspan><tspan class="cls-3" x="30.05" y="0">Y</tspan><tspan class="cls-13" x="59.38" y="0">E</tspan><tspan x="87.7" y="0">V</tspan></text><text class="cls-5" transform="translate(80 778.8)"><tspan x="0" y="0">N</tspan><tspan class="cls-12" x="31.92" y="0">U</tspan><tspan class="cls-11" x="61.82" y="0">CLEAR</tspan></text></g></svg>